<?xml version="1.0" standalone="no"?>
<!DOCTYPE svg PUBLIC "-//W3C//DTD SVG 20010904//EN"
 "http://www.w3.org/TR/2001/REC-SVG-20010904/DTD/svg10.dtd">
<svg version="1.0" xmlns="http://www.w3.org/2000/svg"
 width="225.000000pt" height="225.000000pt" viewBox="0 0 225.000000 225.000000"
 preserveAspectRatio="xMidYMid meet">

<g transform="translate(0.000000,225.000000) scale(0.100000,-0.100000)"
fill="#000000" stroke="none">
<path d="M0 1125 l0 -1125 1125 0 1125 0 0 1125 0 1125 -1125 0 -1125 0 0
-1125z m437 379 c3 -8 -11 -100 -32 -204 -31 -155 -35 -193 -25 -205 16 -19
110 -20 173 -1 51 15 55 12 32 -21 -20 -29 -81 -45 -172 -46 -84 -2 -113 16
-113 68 0 18 16 110 35 206 20 95 33 179 31 186 -3 8 4 18 17 23 33 13 47 12
54 -6z m990 -26 c-3 -7 -13 -30 -22 -52 l-16 -38 109 4 c104 3 110 2 100 -15
-14 -27 -51 -37 -142 -37 l-84 0 -16 -65 c-19 -76 -21 -156 -4 -173 22 -22 59
-13 94 22 19 19 37 30 40 24 31 -50 -102 -138 -171 -112 -26 10 -45 59 -45
114 l0 51 -45 -31 c-38 -26 -44 -35 -39 -55 8 -33 -20 -87 -58 -109 -44 -27
-107 -25 -130 4 -10 12 -18 26 -18 30 0 19 51 68 88 84 l40 18 -26 43 -26 43
-32 -42 c-40 -52 -132 -124 -181 -142 -117 -41 -203 8 -203 116 1 90 67 178
151 200 73 20 129 -12 129 -72 0 -59 -100 -128 -185 -128 -21 0 -26 -4 -21
-16 3 -9 6 -19 6 -24 0 -19 33 -40 63 -40 18 0 52 9 76 20 49 23 166 136 176
172 27 98 84 136 115 78 8 -14 4 -26 -15 -49 l-26 -30 26 -51 26 -51 42 30
c59 41 86 72 93 109 l7 32 -48 0 c-47 0 -47 0 -33 23 11 15 27 23 55 25 36 3
42 7 58 43 20 44 38 58 74 59 15 0 21 -5 18 -12z m322 -123 c47 -24 55 -74 19
-120 -26 -34 -112 -75 -155 -75 -35 0 -40 -9 -22 -43 16 -29 28 -37 63 -37 65
0 157 64 229 159 32 43 48 57 58 50 21 -13 -14 -70 -87 -143 -71 -71 -139
-108 -210 -114 -60 -5 -88 7 -114 51 -55 89 8 234 116 272 50 18 69 18 103 0z
m191 -425 c0 -7 -280 -10 -820 -10 -540 0 -820 3 -820 10 0 7 280 10 820 10
540 0 820 -3 820 -10z m-1010 -80 c0 -5 -16 -10 -35 -10 -24 0 -35 -5 -35 -15
0 -10 11 -15 35 -15 19 0 35 -4 35 -10 0 -5 -16 -10 -35 -10 -24 0 -35 -5 -35
-15 0 -10 11 -15 35 -15 25 0 35 -4 35 -16 0 -12 -10 -14 -47 -12 l-48 3 -3
53 c-3 44 -6 52 -23 52 -16 0 -19 -7 -19 -55 0 -42 -3 -55 -15 -55 -12 0 -15
13 -15 55 0 48 -2 55 -20 55 -11 0 -20 5 -20 10 0 6 42 10 105 10 63 0 105 -4
105 -10z m40 -40 c0 -49 1 -50 30 -50 20 0 30 -5 30 -15 0 -11 -11 -15 -40
-15 l-40 0 0 65 c0 37 4 65 10 65 6 0 10 -22 10 -50z m160 40 c0 -5 -16 -10
-35 -10 -24 0 -35 -5 -35 -15 0 -10 11 -15 35 -15 19 0 35 -4 35 -10 0 -5 -16
-10 -35 -10 -50 0 -48 -28 3 -32 53 -4 46 -22 -10 -26 l-48 -3 0 65 0 66 45 0
c25 0 45 -4 45 -10z m120 -10 c12 -23 0 -27 -29 -8 -28 17 -51 3 -51 -31 0
-39 31 -59 54 -35 24 23 39 13 21 -14 -22 -30 -59 -28 -85 5 -22 28 -21 63 2
90 17 21 76 16 88 -7z m124 -2 c9 -12 16 -30 16 -39 0 -26 -39 -69 -64 -69
-48 0 -78 76 -46 114 19 24 76 20 94 -6z m69 -20 l15 -43 18 43 c26 64 44 55
44 -23 0 -71 -19 -92 -21 -22 l-1 42 -15 -43 c-18 -51 -32 -50 -49 4 l-12 39
-1 -42 c-2 -70 -21 -49 -21 22 0 78 20 89 43 23z"/>
<path d="M782 1314 c-24 -16 -62 -83 -62 -108 0 -12 7 -13 38 -4 60 16 109 70
97 108 -8 24 -42 26 -73 4z"/>
<path d="M1085 1087 c-57 -40 -59 -59 -8 -55 31 2 39 8 47 31 14 40 -3 50 -39
24z"/>
<path d="M1648 1311 c-26 -21 -58 -78 -58 -104 0 -13 6 -14 38 -5 54 14 94 55
90 93 -4 38 -33 44 -70 16z"/>
<path d="M1296 825 c-11 -30 -6 -54 13 -64 28 -15 54 8 49 44 -2 24 -8 31 -29
33 -17 2 -29 -3 -33 -13z"/>
</g>
</svg>
